# xmcd
#
# Track frame offsets: 
#        150
#        13242
#        28376
#        45558
#        58745
#        72091
#        85031
#        102412
#        114284
#        128479
#
# Disc length: 1865 seconds
#
# Revision: 0
# Processed by: cddbd v1.5.1PL2 Copyright (c) Steve Scherf et al.
# Submitted via: ExactAudioCopy v0.95b3
#
DISCID=7f07470a
DTITLE=Janie Frickie - Tributes To My Heroes
DYEAR=1900
DGENRE=Country
TTITLE0=Ring Of Fire
TTITLE1=Midnight Rider
TTITLE2=Leaving On Your Mind
TTITLE3=Isn't It Always Love
TTITLE4=Faithless Love
TTITLE5=Goodbye Broken Heart
TTITLE6=At This Moment
TTITLE7=You're Running Wild
TTITLE8=Both Sides Now
TTITLE9=Forever Free
EXTD=
EXTT0=
EXTT1=
EXTT2=
EXTT3=
EXTT4=
EXTT5=
EXTT6=
EXTT7=
EXTT8=
EXTT9=
PLAYORDER=
